<svg id="Layer_1" data-name="Layer 1" xmlns="http://www.w3.org/2000/svg" viewBox="0 0 100 100"><defs><style>.cls-1{fill:#fff;}.cls-2,.cls-4,.cls-8{fill:#639;}.cls-3{fill:#8693c6;}.cls-4,.cls-8{stroke:#639;}.cls-4{stroke-width:0.3px;}.cls-5{fill:#fce8cb;}.cls-6{fill:#3a312a;}.cls-7{fill:#f39;}.cls-8{stroke-miterlimit:10;stroke-width:0.5px;}</style></defs><title>icon 8</title><polygon class="cls-1" points="14.38 11.39 12.31 14.05 14.38 16.64 16.64 14.14 14.38 11.39"/><polygon class="cls-1" points="15.49 21.07 13.43 23.73 15.49 26.32 17.75 23.82 15.49 21.07"/><polygon class="cls-1" points="22.9 15.85 19.77 19.36 22.9 22.77 26.34 19.48 22.9 15.85"/><path id="Path_3441" data-name="Path 3441" class="cls-2" d="M27.52,18.61c-3-.18-4.07-4.14-4.08-4.18a.51.51,0,0,0-1,.09,4.78,4.78,0,0,1-4,4.14.51.51,0,0,0,.05,1c3.1.15,3.95,4.38,4,4.42a.52.52,0,0,0,.51.42h0a.51.51,0,0,0,.47-.51c.07-2.92,4.19-4.39,4.23-4.4A.53.53,0,0,0,28,19,.5.5,0,0,0,27.52,18.61Zm-4.67,3.55a6,6,0,0,0-2.61-3.05,5.51,5.51,0,0,0,2.82-2.84,6.29,6.29,0,0,0,2.86,3,7.28,7.28,0,0,0-3.07,2.9Z"/><path id="Path_3443" data-name="Path 3443" class="cls-2" d="M18.73,23.11C16.75,23,16,20.3,16,20.27a.51.51,0,0,0-1,.09,3.23,3.23,0,0,1-2.73,2.79.51.51,0,0,0-.43.59.53.53,0,0,0,.48.44c2.08.09,2.66,3,2.66,3a.53.53,0,0,0,.51.42h0a.52.52,0,0,0,.47-.51c0-2,2.86-3,2.89-3a.52.52,0,0,0-.13-1Zm-3.3,2.34a4.36,4.36,0,0,0-1.53-1.82,4,4,0,0,0,1.68-1.69,4.67,4.67,0,0,0,1.7,1.8,5.32,5.32,0,0,0-1.85,1.71Z"/><path id="Path_3445" data-name="Path 3445" class="cls-2" d="M17.6,13.51c-2-.12-2.74-2.81-2.75-2.84a.5.5,0,0,0-.63-.36.52.52,0,0,0-.38.45,3.23,3.23,0,0,1-2.73,2.79.52.52,0,0,0-.43.59.51.51,0,0,0,.48.43c2.08.1,2.66,3,2.66,3a.51.51,0,0,0,.51.42h0a.52.52,0,0,0,.48-.5c0-2,2.85-3,2.89-3a.5.5,0,0,0,.31-.65.52.52,0,0,0-.45-.35Zm-3.29,2.34A4.51,4.51,0,0,0,12.78,14a4.06,4.06,0,0,0,1.67-1.69,4.67,4.67,0,0,0,1.7,1.8,5.41,5.41,0,0,0-1.85,1.71Z"/><path id="Path_3446" data-name="Path 3446" class="cls-3" d="M84.45,11.4H33.86a4.36,4.36,0,0,0-4.36,4.35h0V83.47a4.35,4.35,0,0,0,4.35,4.35h50.6a4.35,4.35,0,0,0,4.35-4.35l0-67.73a4.35,4.35,0,0,0-4.35-4.35Z"/><path id="Path_3447" data-name="Path 3447" class="cls-4" d="M87.89,12.31a4.88,4.88,0,0,0-3.44-1.43H33.85A4.87,4.87,0,0,0,29,15.74V32.5a.52.52,0,0,0,1,0V15.74a3.83,3.83,0,0,1,3.84-3.83H84.45a3.83,3.83,0,0,1,3.84,3.83l0,67.73a3.85,3.85,0,0,1-3.83,3.84H33.85A3.85,3.85,0,0,1,30,83.47V37.05a.51.51,0,0,0-.48-.54A.52.52,0,0,0,29,37V83.47a4.88,4.88,0,0,0,4.87,4.87h50.6a4.87,4.87,0,0,0,4.86-4.87V15.76a4.82,4.82,0,0,0-1.42-3.44Z"/><path id="Path_3448" data-name="Path 3448" class="cls-1" d="M81.62,16.31H36.69a1.85,1.85,0,0,0-1.85,1.85V36.43a1.85,1.85,0,0,0,1.85,1.85H81.62a1.85,1.85,0,0,0,1.85-1.85h0V18.17a1.85,1.85,0,0,0-1.85-1.85h0Z"/><path id="Path_3449" data-name="Path 3449" class="cls-2" d="M83.3,16.49a2.37,2.37,0,0,0-1.68-.7H70.83a.52.52,0,1,0,0,1H81.62A1.35,1.35,0,0,1,83,18.16V36.43a1.34,1.34,0,0,1-1.34,1.34H36.69a1.34,1.34,0,0,1-1.34-1.34h0V18.15a1.33,1.33,0,0,1,1.34-1.33H66.56a.52.52,0,0,0,.52-.52.52.52,0,0,0-.52-.52H36.69a2.37,2.37,0,0,0-2.37,2.37V36.42a2.37,2.37,0,0,0,2.37,2.37H81.62A2.37,2.37,0,0,0,84,36.42V18.15a2.36,2.36,0,0,0-.69-1.67Z"/><path id="Path_3450" data-name="Path 3450" class="cls-1" d="M42.5,43.71H36.63a1.86,1.86,0,0,0-1.86,1.86v5.87a1.86,1.86,0,0,0,1.86,1.86H42.5a1.86,1.86,0,0,0,1.86-1.86V45.57A1.86,1.86,0,0,0,42.5,43.71Z"/><path id="Path_3451" data-name="Path 3451" class="cls-2" d="M42.5,43.2H36.63a2.38,2.38,0,0,0-2.38,2.37v5.87a2.38,2.38,0,0,0,2.38,2.37H42.5a2.38,2.38,0,0,0,2.37-2.37V45.56a2.37,2.37,0,0,0-2.37-2.37Zm1.34,8.24a1.34,1.34,0,0,1-1.34,1.34H36.63a1.34,1.34,0,0,1-1.34-1.34V45.57a1.34,1.34,0,0,1,1.34-1.34H42.5a1.34,1.34,0,0,1,1.34,1.34v5.87Z"/><path id="Path_3452" data-name="Path 3452" class="cls-1" d="M55.55,43.71H49.68a1.86,1.86,0,0,0-1.86,1.86v5.87a1.86,1.86,0,0,0,1.86,1.86h5.87a1.86,1.86,0,0,0,1.86-1.86h0V45.57A1.86,1.86,0,0,0,55.55,43.71Z"/><path id="Path_3453" data-name="Path 3453" class="cls-2" d="M55.56,43.2H49.68a2.37,2.37,0,0,0-2.37,2.37v5.87a2.38,2.38,0,0,0,2.37,2.37h5.88a2.37,2.37,0,0,0,2.37-2.37V45.56a2.37,2.37,0,0,0-2.37-2.37Zm1.34,8.24a1.34,1.34,0,0,1-1.34,1.34H49.68a1.34,1.34,0,0,1-1.34-1.34V45.57a1.34,1.34,0,0,1,1.34-1.34h5.88a1.34,1.34,0,0,1,1.34,1.34Z"/><path id="Path_3454" data-name="Path 3454" class="cls-1" d="M68.61,43.71H62.74a1.86,1.86,0,0,0-1.86,1.86v5.87a1.86,1.86,0,0,0,1.86,1.86h5.87a1.86,1.86,0,0,0,1.86-1.86V45.57a1.86,1.86,0,0,0-1.86-1.86Z"/><path id="Path_3455" data-name="Path 3455" class="cls-2" d="M68.61,43.2H62.74a2.38,2.38,0,0,0-2.38,2.37v5.87a2.38,2.38,0,0,0,2.38,2.37h5.87A2.38,2.38,0,0,0,71,51.44V45.56a2.37,2.37,0,0,0-2.37-2.37ZM70,51.44a1.34,1.34,0,0,1-1.34,1.34H62.74a1.36,1.36,0,0,1-1.35-1.34V45.57a1.35,1.35,0,0,1,1.35-1.34h5.87A1.34,1.34,0,0,1,70,45.57Z"/><path id="Path_3456" data-name="Path 3456" class="cls-1" d="M81.66,43.71H75.79a1.85,1.85,0,0,0-1.85,1.86h0v5.87a1.85,1.85,0,0,0,1.85,1.86h5.87a1.86,1.86,0,0,0,1.86-1.86h0V45.57a1.86,1.86,0,0,0-1.86-1.86Z"/><path id="Path_3457" data-name="Path 3457" class="cls-2" d="M81.67,43.2H75.8a2.37,2.37,0,0,0-2.37,2.37v5.87a2.37,2.37,0,0,0,2.37,2.37h5.87a2.38,2.38,0,0,0,2.38-2.37V45.56a2.38,2.38,0,0,0-2.38-2.37ZM83,51.44a1.34,1.34,0,0,1-1.34,1.34H75.8a1.34,1.34,0,0,1-1.34-1.34V45.57a1.34,1.34,0,0,1,1.34-1.34h5.87A1.34,1.34,0,0,1,83,45.57Z"/><path id="Path_3458" data-name="Path 3458" class="cls-5" d="M42.5,58.47H36.63a1.86,1.86,0,0,0-1.86,1.86V66.2a1.86,1.86,0,0,0,1.86,1.86H42.5a1.87,1.87,0,0,0,1.86-1.86V60.33A1.86,1.86,0,0,0,42.5,58.47Z"/><path id="Path_3459" data-name="Path 3459" class="cls-6" d="M42.5,58H36.63a2.38,2.38,0,0,0-2.38,2.37V66.2a2.38,2.38,0,0,0,2.38,2.37H42.5a2.37,2.37,0,0,0,2.37-2.37V60.32A2.38,2.38,0,0,0,42.5,58Zm1.34,8.25a1.34,1.34,0,0,1-1.34,1.34H36.63a1.34,1.34,0,0,1-1.34-1.34V60.33A1.34,1.34,0,0,1,36.63,59H42.5a1.34,1.34,0,0,1,1.34,1.34V66.2Z"/><path id="Path_3460" data-name="Path 3460" class="cls-1" d="M55.55,58.47H49.68a1.86,1.86,0,0,0-1.86,1.86V66.2a1.86,1.86,0,0,0,1.86,1.86h5.87a1.86,1.86,0,0,0,1.86-1.86h0V60.33A1.86,1.86,0,0,0,55.55,58.47Z"/><path id="Path_3461" data-name="Path 3461" class="cls-2" d="M55.56,58H49.68a2.38,2.38,0,0,0-2.37,2.37V66.2a2.37,2.37,0,0,0,2.37,2.37h5.88a2.37,2.37,0,0,0,2.37-2.37V60.32A2.38,2.38,0,0,0,55.56,58ZM56.9,66.2a1.34,1.34,0,0,1-1.34,1.34H49.68a1.34,1.34,0,0,1-1.34-1.34V60.33A1.34,1.34,0,0,1,49.68,59h5.88a1.34,1.34,0,0,1,1.34,1.34Z"/><path id="Path_3462" data-name="Path 3462" class="cls-1" d="M68.61,58.47H62.73a1.86,1.86,0,0,0-1.86,1.86V66.2a1.87,1.87,0,0,0,1.86,1.86H68.6a1.86,1.86,0,0,0,1.86-1.86V60.33a1.86,1.86,0,0,0-1.86-1.86Z"/><path id="Path_3463" data-name="Path 3463" class="cls-2" d="M68.61,58H62.74a2.38,2.38,0,0,0-2.38,2.37V66.2a2.38,2.38,0,0,0,2.38,2.37h5.87A2.37,2.37,0,0,0,71,66.2V60.32A2.38,2.38,0,0,0,68.61,58ZM70,66.2a1.34,1.34,0,0,1-1.34,1.34H62.74a1.36,1.36,0,0,1-1.35-1.34V60.33A1.36,1.36,0,0,1,62.74,59h5.87A1.34,1.34,0,0,1,70,60.33Z"/><path id="Path_3464" data-name="Path 3464" class="cls-1" d="M81.66,58.47H75.79a1.85,1.85,0,0,0-1.85,1.86h0V66.2a1.86,1.86,0,0,0,1.85,1.86h5.87a1.86,1.86,0,0,0,1.86-1.86h0V60.33a1.86,1.86,0,0,0-1.86-1.86Z"/><path id="Path_3465" data-name="Path 3465" class="cls-2" d="M81.67,58H75.8a2.37,2.37,0,0,0-2.37,2.37V66.2a2.37,2.37,0,0,0,2.37,2.37h5.87a2.38,2.38,0,0,0,2.38-2.37V60.32A2.38,2.38,0,0,0,81.67,58ZM83,66.2a1.34,1.34,0,0,1-1.34,1.34H75.8a1.34,1.34,0,0,1-1.34-1.34V60.33A1.34,1.34,0,0,1,75.8,59h5.87A1.34,1.34,0,0,1,83,60.33Z"/><path id="Path_3466" data-name="Path 3466" class="cls-5" d="M42.5,73.22H36.63a1.86,1.86,0,0,0-1.86,1.86V81a1.86,1.86,0,0,0,1.86,1.86H42.5A1.86,1.86,0,0,0,44.36,81V75.08A1.87,1.87,0,0,0,42.5,73.22Z"/><path id="Path_3467" data-name="Path 3467" class="cls-6" d="M42.5,72.71H36.63a2.38,2.38,0,0,0-2.38,2.37V81a2.39,2.39,0,0,0,2.38,2.38H42.5A2.38,2.38,0,0,0,44.87,81V75.09a2.37,2.37,0,0,0-2.37-2.37ZM43.84,81a1.34,1.34,0,0,1-1.34,1.34H36.63A1.34,1.34,0,0,1,35.29,81V75.09a1.34,1.34,0,0,1,1.34-1.34H42.5a1.34,1.34,0,0,1,1.34,1.34V81Z"/><path id="Path_3468" data-name="Path 3468" class="cls-1" d="M55.55,73.22H49.68a1.86,1.86,0,0,0-1.86,1.86V81a1.86,1.86,0,0,0,1.86,1.86h5.87A1.86,1.86,0,0,0,57.41,81V75.08A1.87,1.87,0,0,0,55.55,73.22Z"/><path id="Path_3469" data-name="Path 3469" class="cls-2" d="M55.56,72.71H49.68a2.37,2.37,0,0,0-2.37,2.37V81a2.38,2.38,0,0,0,2.37,2.38h5.88A2.38,2.38,0,0,0,57.93,81V75.09a2.37,2.37,0,0,0-2.37-2.37ZM56.9,81a1.35,1.35,0,0,1-1.35,1.34H49.68A1.34,1.34,0,0,1,48.34,81V75.09a1.34,1.34,0,0,1,1.34-1.34h5.88a1.34,1.34,0,0,1,1.34,1.34Z"/><path id="Path_3470" data-name="Path 3470" class="cls-1" d="M68.61,73.22H62.74a1.86,1.86,0,0,0-1.86,1.86V81a1.86,1.86,0,0,0,1.86,1.86h5.87A1.86,1.86,0,0,0,70.47,81V75.08a1.86,1.86,0,0,0-1.86-1.86Z"/><path id="Path_3471" data-name="Path 3471" class="cls-2" d="M68.61,72.71H62.74a2.38,2.38,0,0,0-2.38,2.37V81a2.39,2.39,0,0,0,2.38,2.38h5.87A2.38,2.38,0,0,0,71,81V75.09a2.37,2.37,0,0,0-2.37-2.37ZM70,81a1.34,1.34,0,0,1-1.34,1.34H62.74A1.36,1.36,0,0,1,61.39,81V75.09a1.35,1.35,0,0,1,1.35-1.34h5.87A1.34,1.34,0,0,1,70,75.09Z"/><path id="Path_3472" data-name="Path 3472" class="cls-1" d="M81.66,73.22H75.79a1.86,1.86,0,0,0-1.85,1.86h0V81a1.85,1.85,0,0,0,1.85,1.86h5.87A1.86,1.86,0,0,0,83.52,81h0V75.08a1.86,1.86,0,0,0-1.86-1.86Z"/><path id="Path_3473" data-name="Path 3473" class="cls-2" d="M81.67,72.71H75.8a2.37,2.37,0,0,0-2.37,2.37V81a2.38,2.38,0,0,0,2.37,2.38h5.87A2.39,2.39,0,0,0,84.05,81V75.09a2.38,2.38,0,0,0-2.38-2.37ZM83,81a1.34,1.34,0,0,1-1.34,1.34H75.8A1.34,1.34,0,0,1,74.46,81V75.09a1.34,1.34,0,0,1,1.34-1.34h5.87A1.34,1.34,0,0,1,83,75.09Z"/><path id="Path_3475" data-name="Path 3475" class="cls-7" d="M52.62,67.68A20.15,20.15,0,1,1,32.47,47.53h0A20.15,20.15,0,0,1,52.62,67.68Z"/><path id="Path_3476" data-name="Path 3476" class="cls-8" d="M32.47,47A20.67,20.67,0,1,0,53.13,67.68,20.67,20.67,0,0,0,32.47,47Zm0,40.31A19.64,19.64,0,1,1,52.1,67.68h0A19.65,19.65,0,0,1,32.47,87.32Z"/><path id="Path_3477" data-name="Path 3477" class="cls-1" d="M34.87,65.4c-2.93-1.1-4.14-1.83-4.14-3,0-1,.72-1.93,3-1.93a11.44,11.44,0,0,1,5,1.17l1-3.9a12.51,12.51,0,0,0-5-1.14v-3H31.29v3.28c-3.7.72-5.84,3.1-5.84,6.14,0,3.35,2.52,5.08,6.21,6.32,2.56.86,3.66,1.69,3.66,3S34,74.49,32,74.49A12.19,12.19,0,0,1,26.28,73l-1,4a13.82,13.82,0,0,0,5.87,1.48v3.29H34.5V78.25c4-.69,6.14-3.31,6.14-6.38s-1.65-5-5.76-6.46Z"/><path id="Path_3478" data-name="Path 3478" class="cls-2" d="M35.05,64.92c-2.82-1.06-3.81-1.71-3.81-2.49,0-1.23,1.53-1.42,2.45-1.42a10.42,10.42,0,0,1,4.52,1l.25.11a.51.51,0,0,0,.68-.28.14.14,0,0,0,0-.07l1-3.91a.52.52,0,0,0-.27-.59,12.7,12.7,0,0,0-4.72-1.16V53.59a.51.51,0,0,0-.51-.52H31.27a.51.51,0,0,0-.51.52v2.85A6.81,6.81,0,0,0,24.92,63c0,4.07,3.51,5.78,6.57,6.8,2.74.93,3.31,1.68,3.31,2.52C34.8,73.84,32.65,74,32,74a11.72,11.72,0,0,1-5.49-1.46.51.51,0,0,0-.7.2.56.56,0,0,0,0,.12l-1,4a.52.52,0,0,0,.24.58A14.09,14.09,0,0,0,30.58,79v2.8a.51.51,0,0,0,.52.51h3.38a.51.51,0,0,0,.52-.51h0v-3.1a7.06,7.06,0,0,0,6.14-6.81c0-3.36-1.82-5.44-6.1-6.94ZM34.4,77.74a.52.52,0,0,0-.43.51v3H31.62V78.49a.53.53,0,0,0-.5-.52,14.06,14.06,0,0,1-5.29-1.23l.78-3A12.74,12.74,0,0,0,32,75c2.36,0,3.83-1,3.83-2.66s-1.61-2.68-4-3.49C27.71,67.47,26,65.72,26,63c0-2.86,2-5,5.42-5.64a.51.51,0,0,0,.42-.51V54.11h2.35v2.52a.53.53,0,0,0,.5.52,12.47,12.47,0,0,1,4.42.91L38.31,61a11.31,11.31,0,0,0-4.62-1c-3.23,0-3.49,1.88-3.49,2.45,0,1.5,1.45,2.31,4.49,3.46,3.86,1.36,5.43,3.09,5.43,6s-2.19,5.26-5.72,5.88Z"/></svg>