<svg id="Layer_1" data-name="Layer 1" xmlns="http://www.w3.org/2000/svg" xmlns:xlink="http://www.w3.org/1999/xlink" viewBox="0 0 100 100"><defs><style>.cls-1{fill:none;}.cls-2{fill:#fff;}.cls-3{clip-path:url(#clip-path);}.cls-4{fill:#f39;}.cls-5{fill:#690589;}</style><clipPath id="clip-path"><rect class="cls-1" x="10.68" y="6.9" width="73.51" height="86.2"/></clipPath></defs><title>icon 6</title><polygon class="cls-2" points="57.64 77.71 35.5 87.7 13.63 34.21 31.65 25.28 57.64 77.71"/><polygon class="cls-2" points="71.29 73.59 38.33 81.17 24.17 22.11 46.05 16.11 71.29 73.59"/><polygon class="cls-2" points="88.09 72.16 47.05 72.87 47.05 8.67 87.8 8.53 88.09 72.16"/><g id="Group_15" data-name="Group 15"><g class="cls-3"><g id="Group_14" data-name="Group 14"><path id="Path_114" data-name="Path 114" class="cls-4" d="M45.27,36a5.22,5.22,0,0,0-3.56-1.16,5.39,5.39,0,0,0-4.92,5.76c.35,5.46,5.69,11.56,8.48,14.38V36Z"/><path id="Path_115" data-name="Path 115" class="cls-4" d="M35.5,87.7l-20.78-50-2.64,1.09A2,2,0,0,0,11,41.36h0L32,91.82a2,2,0,0,0,2.59,1.07L61.72,81.61A2,2,0,0,0,62.79,79l0-.08-1-2.14Z"/></g></g></g><path id="Path_116" data-name="Path 116" class="cls-4" d="M33.76,25.25a2.84,2.84,0,1,1-2.84-2.83,2.84,2.84,0,0,1,2.84,2.83Z"/><path id="Path_117" data-name="Path 117" class="cls-4" d="M24.64,37.67a2.84,2.84,0,1,1-2.84-2.83A2.84,2.84,0,0,1,24.64,37.67Z"/><path id="Path_118" data-name="Path 118" class="cls-5" d="M71.48,72.25,39.34,79.91a1,1,0,0,1-1.26-.77L24.79,23.37a1,1,0,0,1,.77-1.25l19.78-4.81a1,1,0,0,0,.71-1.2c-.13-.56-.15-.87-.71-.73L25.07,20.09a3.13,3.13,0,0,0-2.31,3.76l13.3,55.77a3.12,3.12,0,0,0,3.75,2.32h0L72,74.27a1,1,0,1,0-.48-2Z"/><path id="Path_119" data-name="Path 119" class="cls-5" d="M66,73.94,37,86a1,1,0,0,1-1.3-.54L14.7,35a1,1,0,0,1,.53-1.3l9.41-4c.5-.22.22-.45,0-1s-.38-.84-.87-.65l-9.3,3.81a3,3,0,0,0-1.6,3.88h0l21,50.46a3,3,0,0,0,3.88,1.61h0L66.79,75.78A1,1,0,0,0,66,73.94Z"/><path id="Path_120" data-name="Path 120" class="cls-5" d="M86,7H48.64a3.31,3.31,0,0,0-3.3,3.29V70.73a3.32,3.32,0,0,0,3.3,3.3H86a3.3,3.3,0,0,0,3.29-3.3V10.25A3.29,3.29,0,0,0,86,7Zm1.1,63.77a1.1,1.1,0,0,1-1.1,1.1H48.64a1.1,1.1,0,0,1-1.1-1.1V10.25a1.09,1.09,0,0,1,1.1-1.09H86a1.09,1.09,0,0,1,1.1,1.09Z"/><path id="Path_121" data-name="Path 121" class="cls-4" d="M67.55,26.44C66,27.72,57,35.15,56.54,42.58A5.93,5.93,0,0,0,62,49h.17a5.72,5.72,0,0,0,4.14-1.56.4.4,0,0,1,.56,0,.39.39,0,0,1,.11.32l0,.41a12.66,12.66,0,0,1-1.38,4.27l-.77,1.43a.52.52,0,0,0,.22.71.51.51,0,0,0,.24.07h5.21a.52.52,0,0,0,.52-.53.51.51,0,0,0-.06-.25l-.77-1.43a12.66,12.66,0,0,1-1.38-4.27l-.06-.41a.41.41,0,0,1,.35-.44.4.4,0,0,1,.32.11A5.79,5.79,0,0,0,73.48,49a5.93,5.93,0,0,0,5.59-6.24.92.92,0,0,1,0-.16c-.5-7.43-9.41-14.86-11-16.14a.38.38,0,0,0-.49,0Z"/><path id="Path_122" data-name="Path 122" class="cls-4" d="M55.7,15a2.84,2.84,0,1,1-2.83-2.84h0A2.84,2.84,0,0,1,55.7,15Z"/><path id="Path_123" data-name="Path 123" class="cls-4" d="M84.49,66.21a2.84,2.84,0,1,1-2.84-2.84,2.82,2.82,0,0,1,2.84,2.84Z"/></svg>