<svg id="Layer_1" data-name="Layer 1" xmlns="http://www.w3.org/2000/svg" viewBox="0 0 100 100"><defs><style>.cls-1{fill:#639;opacity:0.15;}.cls-2{fill:#f39;}.cls-2,.cls-3{stroke:#680588;}.cls-3{fill:#8693c6;}</style></defs><title>icon 2</title><path id="Union_1" data-name="Union 1" class="cls-1" d="M65.22,76a20.88,20.88,0,0,1-23.81.33,20.75,20.75,0,0,1-7.75,1.49c-11.2,0-20.28-8.78-20.28-19.6,0-.33,0-.66,0-1A19.09,19.09,0,0,1,16.5,39c0-.19,0-.39,0-.58A19.44,19.44,0,0,1,26.1,21.77,20.41,20.41,0,0,1,43.72,11.9,20.74,20.74,0,0,1,50.3,13a21.09,21.09,0,0,1,6.59-1.06,20.52,20.52,0,0,1,16,7.51,21.56,21.56,0,0,1,3.1-.23c11.21,0,20.29,8.77,20.29,19.6a19,19,0,0,1-2.68,9.73,19.09,19.09,0,0,1,4.07,11.76c0,10.83-9.08,19.6-20.29,19.6A20.64,20.64,0,0,1,65.22,76Z"/><path id="Union_2" data-name="Union 2" class="cls-1" d="M55.37,83.36a20.88,20.88,0,0,1-23.81.33,20.54,20.54,0,0,1-7.75,1.48c-11.2,0-20.28-8.77-20.28-19.59,0-.33,0-.67,0-1A19.07,19.07,0,0,1,6.65,46.4c0-.19,0-.39,0-.58a19.44,19.44,0,0,1,9.61-16.66,20.41,20.41,0,0,1,17.62-9.87,20.74,20.74,0,0,1,6.58,1.06A20.8,20.8,0,0,1,47,19.29,20.52,20.52,0,0,1,63,26.8a21.56,21.56,0,0,1,3.1-.23c11.21,0,20.29,8.77,20.29,19.59a19,19,0,0,1-2.68,9.74,19.07,19.07,0,0,1,4.07,11.76c0,10.82-9.08,19.6-20.29,19.6A20.64,20.64,0,0,1,55.37,83.36Z"/><path id="Path_5468" data-name="Path 5468" class="cls-2" d="M49.64,43.33a8.93,8.93,0,1,0,8.93,8.93h0A8.94,8.94,0,0,0,49.64,43.33Zm5.3,7.25L48.54,57a1.37,1.37,0,0,1-1.94,0h0l-2.45-2.44a1.38,1.38,0,0,1,2-1.94l1.47,1.47L53,48.63a1.38,1.38,0,0,1,1.95,0,1.39,1.39,0,0,1,0,1.95Z"/><path id="Path_5469" data-name="Path 5469" class="cls-3" d="M69.55,41.54v0c0-.45,0-.92,0-1.45a5,5,0,0,0-4.67-4.87,19.28,19.28,0,0,1-13.12-5.53l0,0a3,3,0,0,0-4.07,0l0,0a19.28,19.28,0,0,1-13.12,5.53,5,5,0,0,0-4.68,4.87c0,.52,0,1,0,1.45v.09c-.11,5.49-.24,12.33,2.05,18.54A23.61,23.61,0,0,0,37.44,69,29.55,29.55,0,0,0,48.52,75.5a3.47,3.47,0,0,0,.46.13,3.61,3.61,0,0,0,1.31,0,3.47,3.47,0,0,0,.46-.13,29.66,29.66,0,0,0,11.07-6.56,23.61,23.61,0,0,0,5.66-8.82C69.78,53.9,69.65,47,69.55,41.54ZM49.64,63.94A11.68,11.68,0,1,1,61.32,52.26,11.67,11.67,0,0,1,49.64,63.94Z"/></svg>