<svg id="Layer_1" data-name="Layer 1" xmlns="http://www.w3.org/2000/svg" viewBox="0 0 100 100"><defs><style>.cls-1{fill:#639;opacity:0.15;}.cls-2{fill:#8693c6;}.cls-2,.cls-3,.cls-4,.cls-7{stroke:#690589;}.cls-3,.cls-7{fill:#fff;}.cls-3{stroke-miterlimit:10;}.cls-4{fill:#f39;}.cls-5{fill:#c6db5b;}.cls-6{fill:#ccdde6;}.cls-8{fill:#690589;}</style></defs><title>icon 4</title><path id="Union_1" data-name="Union 1" class="cls-1" d="M65,76.6a20.71,20.71,0,0,1-23.79.33,20.76,20.76,0,0,1-7.75,1.5A20,20,0,0,1,13.22,58.68c0-.33,0-.67,0-1a19.36,19.36,0,0,1,3.1-18.33c0-.19,0-.39,0-.59A19.63,19.63,0,0,1,25.94,22,20.36,20.36,0,0,1,43.54,12a20.81,20.81,0,0,1,6.59,1.07A20.71,20.71,0,0,1,56.71,12a20.43,20.43,0,0,1,16,7.57,20.22,20.22,0,0,1,3.1-.23c11.2,0,20.28,8.84,20.28,19.74a19.19,19.19,0,0,1-2.68,9.81,19.42,19.42,0,0,1,4.07,11.86c0,10.9-9.08,19.74-20.28,19.74A20.45,20.45,0,0,1,65,76.6Z"/><path id="Union_2" data-name="Union 2" class="cls-1" d="M55.19,84.05a20.74,20.74,0,0,1-23.8.33,20.54,20.54,0,0,1-7.74,1.49C12.45,85.87,3.37,77,3.37,66.13c0-.34,0-.67,0-1A19.33,19.33,0,0,1,6.5,46.8c0-.2,0-.39,0-.59a19.64,19.64,0,0,1,9.6-16.79,20.65,20.65,0,0,1,24.19-8.88A20.73,20.73,0,0,1,62.83,27a21.35,21.35,0,0,1,3.1-.23A20,20,0,0,1,86.2,46.56a19.33,19.33,0,0,1-2.67,9.81,19.32,19.32,0,0,1,4.06,11.86C87.59,79.13,78.51,88,67.32,88A20.56,20.56,0,0,1,55.19,84.05Z"/><path id="Path_4974" data-name="Path 4974" class="cls-2" d="M66.62,38.15h4A2.42,2.42,0,0,1,73,40.58h0v5.66H66.62Z"/><path id="Path_4975" data-name="Path 4975" class="cls-3" d="M70.63,38.15a2.42,2.42,0,0,0-2.41,2.43v9.7a2.41,2.41,0,0,1-2.4,2.42H61V38.15Z"/><path id="Path_4976" data-name="Path 4976" class="cls-2" d="M65.81,52.7a2.41,2.41,0,0,1-2.4-2.42v-17A2.42,2.42,0,0,0,61,30.87H56.19V52.7Z"/><path id="Path_4977" data-name="Path 4977" class="cls-4" d="M65.81,59.17,58.6,74.53H36.15l7.22-15.36Z"/><path id="Path_4978" data-name="Path 4978" class="cls-2" d="M61,30.87a2.42,2.42,0,0,0-2.4,2.43V68.06H37.75V33.3a2.42,2.42,0,0,1,2.41-2.43H61Z"/><rect id="Rectangle_318" data-name="Rectangle 318" class="cls-5" x="42.56" y="47.85" width="1.6" height="1.62"/><rect id="Rectangle_319" data-name="Rectangle 319" class="cls-5" x="45.77" y="47.85" width="9.62" height="1.62"/><rect id="Rectangle_320" data-name="Rectangle 320" class="cls-5" x="40.96" y="51.09" width="14.43" height="1.62"/><rect id="Rectangle_321" data-name="Rectangle 321" class="cls-5" x="40.96" y="54.32" width="12.83" height="1.62"/><rect id="Rectangle_322" data-name="Rectangle 322" class="cls-6" x="33.74" y="35.73" width="1.6" height="14.55"/><rect id="Rectangle_323" data-name="Rectangle 323" class="cls-6" x="33.74" y="51.89" width="1.6" height="1.62"/><path id="Path_4980" data-name="Path 4980" class="cls-7" d="M53,59.17H37.75v8.89H57.16Z"/><path id="Path_4981" data-name="Path 4981" class="cls-4" d="M58.6,74.53,51.38,59.17H28.93l7.22,15.36Z"/><rect id="Rectangle_325" data-name="Rectangle 325" class="cls-8" x="42.56" y="47.85" width="1.6" height="1.62"/><rect id="Rectangle_326" data-name="Rectangle 326" class="cls-8" x="45.77" y="47.85" width="9.62" height="1.62"/><rect id="Rectangle_327" data-name="Rectangle 327" class="cls-8" x="40.96" y="51.09" width="14.43" height="1.62"/><rect id="Rectangle_328" data-name="Rectangle 328" class="cls-8" x="40.96" y="54.32" width="12.83" height="1.62"/><rect id="Rectangle_329" data-name="Rectangle 329" class="cls-8" x="33.74" y="35.73" width="1.6" height="14.55"/><rect id="Rectangle_330" data-name="Rectangle 330" class="cls-8" x="33.74" y="51.89" width="1.6" height="1.62"/></svg>