<svg id="Layer_1" data-name="Layer 1" xmlns="http://www.w3.org/2000/svg" viewBox="0 0 100 100"><defs><style>.cls-1{fill:#639;opacity:0.15;}.cls-2{fill:#f39;}.cls-10,.cls-2{stroke:#690589;}.cls-3,.cls-6,.cls-9{fill:#fff;}.cls-4{fill:#690589;}.cls-5,.cls-6{isolation:isolate;}.cls-6{font-size:5.47px;font-family:Lato-Heavy, Lato;font-weight:800;}.cls-7{fill:#fcc24c;}.cls-8{fill:#8693c6;}.cls-9{stroke:#639;}.cls-10,.cls-9{stroke-miterlimit:10;}.cls-10{fill:none;stroke-linecap:round;}</style></defs><title>icon 1-01</title><path id="Union_1" data-name="Union 1" class="cls-1" d="M65.22,76a21,21,0,0,1-23.89.33,21,21,0,0,1-7.78,1.49C22.31,77.8,13.19,69,13.19,58.13c0-.33,0-.67,0-1a19.13,19.13,0,0,1,3.12-18.25c0-.2,0-.39,0-.59A19.51,19.51,0,0,1,26,21.57a20.83,20.83,0,0,1,24.29-8.84A20.91,20.91,0,0,1,72.89,19.2,21.62,21.62,0,0,1,76,19c11.24,0,20.36,8.8,20.36,19.66a19.08,19.08,0,0,1-2.69,9.77,19.16,19.16,0,0,1,4.08,11.81c0,10.86-9.11,19.66-20.36,19.66A20.72,20.72,0,0,1,65.22,76Z"/><path id="Union_2" data-name="Union 2" class="cls-1" d="M55.33,83.39a20.94,20.94,0,0,1-23.89.33,20.7,20.7,0,0,1-7.78,1.49c-11.24,0-20.36-8.8-20.36-19.66,0-.34,0-.67,0-1A19.15,19.15,0,0,1,6.44,46.29c0-.19,0-.39,0-.58A19.5,19.5,0,0,1,16.07,29a20.5,20.5,0,0,1,17.68-9.91,21.28,21.28,0,0,1,6.62,1.06A21.17,21.17,0,0,1,47,19.08a20.62,20.62,0,0,1,16,7.54,21.59,21.59,0,0,1,3.11-.23c11.24,0,20.36,8.81,20.36,19.67a19.11,19.11,0,0,1-2.69,9.77,19.08,19.08,0,0,1,4.08,11.81c0,10.86-9.11,19.66-20.36,19.66A20.73,20.73,0,0,1,55.33,83.39Z"/><rect id="Rectangle_56" data-name="Rectangle 56" class="cls-2" x="42.67" y="44.79" width="33.49" height="17.52" rx="1" transform="translate(-16.66 78.25) rotate(-60.02)"/><path id="Path_155" data-name="Path 155" class="cls-3" d="M54.35,50.63A5.84,5.84,0,1,0,65,51.91l-.63.18a5.14,5.14,0,1,1-.22-.62l.59-.26a5.84,5.84,0,0,0-10.41-.58Z"/><path id="Path_156" data-name="Path 156" class="cls-3" d="M58.22,49.12,55,54.74l.56.32,1.14-2a1.61,1.61,0,0,1,1.92-.73l-1.93,3.34.56.33,1.93-3.35a1.64,1.64,0,0,1,.33,2l-.65,1.12.66.38,3.77-.52-.09-.64-3.41.47.28-.49a2.28,2.28,0,0,0-.56-2.92l1-1.7-.56-.33-1,1.71a2.25,2.25,0,0,0-1.45-.08l1.31-2.28Z"/><path id="Path_157" data-name="Path 157" class="cls-4" d="M64.81,40.28l.59-1-4.61-2.66L58.13,41.2l1,.59,2.07-3.58Z"/><path id="Path_158" data-name="Path 158" class="cls-4" d="M50,65.89l.59-1L47,62.8l2.07-3.59-1-.59-2.66,4.61Z"/><path id="Path_159" data-name="Path 159" class="cls-4" d="M53.84,66.72l-.59,1,4.61,2.66,2.66-4.61-1-.6-2.07,3.59Z"/><path id="Path_160" data-name="Path 160" class="cls-4" d="M68.62,41.11l-.59,1,3.58,2.07-2.07,3.59,1,.59,2.66-4.61Z"/><rect id="Rectangle_56-2" data-name="Rectangle 56-2" class="cls-2" x="46.16" y="49.26" width="33.49" height="17.52" rx="0.5" transform="translate(-22.39 51.05) rotate(-38.02)"/><path id="Path_155-2" data-name="Path 155-2" class="cls-3" d="M59.31,53.42a5.84,5.84,0,1,0,9.41,5.17l-.65-.06a5.13,5.13,0,1,1,0-.65l.64,0a5.84,5.84,0,0,0-9.43-4.44Z"/><path id="Path_157-2" data-name="Path 157-2" class="cls-4" d="M72.88,47.74l.93-.73-3.27-4.2-4.2,3.28.73.93,3.26-2.55Z"/><path id="Path_158-2" data-name="Path 158-2" class="cls-4" d="M49.59,66l.93-.73L48,62l3.26-2.55-.73-.94-4.19,3.28Z"/><path id="Path_159-2" data-name="Path 159-2" class="cls-4" d="M52.8,68.14l-.93.73,3.28,4.2,4.2-3.28-.73-.93-3.26,2.55Z"/><path id="Path_160-2" data-name="Path 160-2" class="cls-4" d="M76.1,49.93l-.93.73,2.55,3.26-3.26,2.55.73.93,4.19-3.27Z"/><g id="_100" data-name=" 100" class="cls-5"><text class="cls-6" transform="translate(59.99 62.49) rotate(-38.02)">100</text></g><path id="Path_3396" data-name="Path 3396" class="cls-4" d="M83.87,52.43a2.63,2.63,0,0,1-.74-.09.4.4,0,0,0-.49.26.39.39,0,0,0,.27.48h0a3.45,3.45,0,0,0,1,.12,2.81,2.81,0,0,0,1.26-.42,2.71,2.71,0,0,0,1.32.19,2.59,2.59,0,0,0,1.91-1,.39.39,0,0,0-.09-.54h0a.41.41,0,0,0-.54.1,1.82,1.82,0,0,1-1.33.69,2,2,0,0,1-.6,0,1.66,1.66,0,0,0,.3-1.1h0A1.18,1.18,0,0,0,85,50a1.07,1.07,0,0,0-.76.44,1.29,1.29,0,0,0-.23.87h0a1.63,1.63,0,0,0,.5,1A2,2,0,0,1,83.87,52.43Zm.87-1.23h0a.51.51,0,0,1,.08-.34.34.34,0,0,1,.2-.13.43.43,0,0,1,.37.42h0a1,1,0,0,1-.27.72A1,1,0,0,1,84.74,51.2Z"/><path id="Path_3383" data-name="Path 3383" class="cls-7" d="M38.92,55.24a3.77,3.77,0,0,1,1.06,0,.55.55,0,1,0,.16-1.08,4.57,4.57,0,0,0-1.43,0,3.89,3.89,0,0,0-1.72.77,3.86,3.86,0,0,0-1.88-.07,3.66,3.66,0,0,0-2.53,1.7.55.55,0,0,0,.21.74h0a.55.55,0,0,0,.74-.22,2.62,2.62,0,0,1,1.78-1.16,3.44,3.44,0,0,1,.85,0,2.35,2.35,0,0,0-.27,1.6h0a1.64,1.64,0,0,0,1.86,1.39,1.46,1.46,0,0,0,1-.73A1.82,1.82,0,0,0,39,56.91v0a2.35,2.35,0,0,0-.84-1.37A3.17,3.17,0,0,1,38.92,55.24Zm-1,1.86v0a.7.7,0,0,1-.07.49.42.42,0,0,1-.26.21.57.57,0,0,1-.57-.53h0a1.34,1.34,0,0,1,.27-1A1.34,1.34,0,0,1,37.88,57.1Z"/><path id="Path_3395" data-name="Path 3395" class="cls-4" d="M64.38,33.27a2.57,2.57,0,0,0,.93-2.05A2.38,2.38,0,0,0,65,30.09c-.2-.37-1.08-1.4-.63-1.83a.41.41,0,0,0-.47-.67,1.34,1.34,0,0,0-.48,1.12,2.43,2.43,0,0,0,.47,1.19A3.58,3.58,0,0,1,64.46,31a1.8,1.8,0,0,1-.5,1.59.44.44,0,0,0-.15.61A.4.4,0,0,0,64.38,33.27Z"/><path id="Path_3397" data-name="Path 3397" class="cls-4" d="M80.86,71.62a2.65,2.65,0,0,0-1.79-1.47,2.61,2.61,0,0,0-1.21,0c-.42.1-1.68.7-2,.14a.44.44,0,0,0-.54-.25.42.42,0,0,0-.25.53,1.34,1.34,0,0,0,1,.78,2.34,2.34,0,0,0,1.31-.16,3.67,3.67,0,0,1,1.22-.28,1.83,1.83,0,0,1,1.44.92c.1.22.31.42.57.31A.42.42,0,0,0,80.86,71.62Z"/><path id="Path_3394" data-name="Path 3394" class="cls-4" d="M50.94,32.07a.87.87,0,1,1,0-1.23h0A.87.87,0,0,1,50.94,32.07Z"/><path id="Path_3393" data-name="Path 3393" class="cls-4" d="M52.25,34.8a.86.86,0,0,1-1.22.05.87.87,0,1,1,1.18-1.27h0A.86.86,0,0,1,52.25,34.8Z"/><path id="Path_3391" data-name="Path 3391" class="cls-4" d="M49.52,35.44a.86.86,0,0,1-1.22,0,.87.87,0,1,1,1.18-1.27h0A.87.87,0,0,1,49.52,35.44Z"/><g id="Group_2227" data-name="Group 2227"><path id="Path_3309" data-name="Path 3309" class="cls-4" d="M58.86,77.18a.86.86,0,1,1,.57-1.08h0A.87.87,0,0,1,58.86,77.18Z"/><path id="Path_3310" data-name="Path 3310" class="cls-4" d="M58.62,80.21a.87.87,0,0,1-1.08-.57.87.87,0,1,1,1.66-.51h0A.86.86,0,0,1,58.62,80.21Z"/><path id="Path_3311" data-name="Path 3311" class="cls-4" d="M55.94,79.4a.87.87,0,1,1,.58-1.09h0A.87.87,0,0,1,55.94,79.4Z"/></g><rect id="Rectangle_158" data-name="Rectangle 158" class="cls-8" x="26.13" y="37.48" width="20.07" height="35.84" rx="1"/><rect id="Rectangle_159" data-name="Rectangle 159" class="cls-9" x="30.43" y="41.79" width="11.47" height="11.47" rx="0.5"/><path id="Path_3355" data-name="Path 3355" class="cls-3" d="M24.1,78H40.58V74.21h4.9l.6-1.55-.6-1.79,2.87-1.08V67.64l.6-2.15.59-1.43L49,62.27v-2l-1.56-1h-4.9l-1,1v2l1,.59-1,1.2v2.87l-.67.53-.29,1.62v.71l-1.07,1.08H32.82l-.72-2.63L31,65.49l-2-1.43H27.08l4-1.2,1.46-1.74-.39-.89H25.17l-1.07.6Z"/><path id="Rectangle_156" data-name="Rectangle 156" class="cls-4" d="M27,36.53H45A1.5,1.5,0,0,1,46.48,38h-21A1.5,1.5,0,0,1,27,36.53Z"/><path id="Path_3350" data-name="Path 3350" class="cls-4" d="M50.53,60.81a2.61,2.61,0,0,0-2.61-2.61H46.43V38h-1.5V58.2H43.06a2.61,2.61,0,0,0-1.82,4.48,2.59,2.59,0,0,0-.4,3.24,2.6,2.6,0,0,0-1.25,3.49H33.72a6.73,6.73,0,0,0-2.89-5.53,4.48,4.48,0,0,0,2.89-4.19A.74.74,0,0,0,33,59H27V38H25.42l.08,20.92a2.25,2.25,0,0,0-2.24,2.25V77.62h1.49V61.19a.75.75,0,0,1,.75-.75h6.63a3,3,0,0,1-2.89,2.24H27a.75.75,0,0,0-.74.75.74.74,0,0,0,.74.74,5.26,5.26,0,0,1,5.24,5.23v.75a.75.75,0,0,0,.74.75h4.37A2.56,2.56,0,0,0,37.08,72a2.61,2.61,0,0,0,2.62,2.61v3h1.49v-3h3.36A2.61,2.61,0,0,0,47.17,72a2.47,2.47,0,0,0-.27-1.13,2.6,2.6,0,0,0,2.51-2.68,2.51,2.51,0,0,0-.4-1.3,2.61,2.61,0,0,0,1.29-3.45,2.72,2.72,0,0,0-.56-.78A2.58,2.58,0,0,0,50.53,60.81Zm-6,12.33H39.7a1.12,1.12,0,1,1-.05-2.24h4.9a1.12,1.12,0,1,1,.05,2.24Zm2.25-3.73H41.94a1.13,1.13,0,0,1,0-2.25H46.8a1.12,1.12,0,0,1,1.14,1.1,1.13,1.13,0,0,1-1.1,1.15ZM49,64.55a1.12,1.12,0,0,1-1.12,1.12H43.06a1.12,1.12,0,1,1,0-2.24h4.9A1.12,1.12,0,0,1,49,64.55Zm-6-2.62a1.11,1.11,0,0,1-1.14-1.09A1.13,1.13,0,0,1,43,59.69h4.9a1.12,1.12,0,0,1,0,2.24Zm2.68-12.81"/><path id="Path_3351" data-name="Path 3351" class="cls-4" d="M42.87,52.22v-9A2.24,2.24,0,0,0,40.63,41h-9a2.24,2.24,0,0,0-2.24,2.24v9a2.24,2.24,0,0,0,2.24,2.24h9A2.24,2.24,0,0,0,42.87,52.22Zm-11.95,0v-9a.74.74,0,0,1,.75-.74h9a.75.75,0,0,1,.75.74v9a.76.76,0,0,1-.75.75h-9a.74.74,0,0,1-.75-.75Z"/><rect id="Rectangle_157" data-name="Rectangle 157" class="cls-4" x="35.4" y="63.43" width="1.49" height="1.49"/><path id="Path_3354" data-name="Path 3354" class="cls-10" d="M33,48.42l1.55,1.81,4.61-4.67"/></svg>