<svg id="Layer_1" data-name="Layer 1" xmlns="http://www.w3.org/2000/svg" viewBox="0 0 100 100"><defs><style>.cls-1,.cls-4{fill:#fff;}.cls-1{stroke:#690689;}.cls-1,.cls-3{stroke-width:2px;}.cls-2{fill:#8693c6;}.cls-3{fill:#f39;stroke:#690589;}</style></defs><title>icon 7</title><path id="Path_3428" data-name="Path 3428" class="cls-1" d="M64.12,9.48H21.59a9.83,9.83,0,0,0-9.8,9.8V75.65a9.84,9.84,0,0,0,9.8,9.8H57l17-30.92V19.28A9.82,9.82,0,0,0,64.12,9.48Z"/><path id="Path_3429" data-name="Path 3429" class="cls-2" d="M36.72,28.3H22.2a2.44,2.44,0,0,1-.13-4.87H36.72a2.44,2.44,0,0,1,.14,4.87Z"/><path id="Path_3430" data-name="Path 3430" class="cls-2" d="M36.72,38H22.2a2.43,2.43,0,1,1-.13-4.86H36.72A2.43,2.43,0,0,1,36.86,38Z"/><path id="Path_3431" data-name="Path 3431" class="cls-2" d="M36.72,47.77H22.2a2.44,2.44,0,1,1-.13-4.87H36.72a2.44,2.44,0,0,1,0,4.87Z"/><path id="Path_3432" data-name="Path 3432" class="cls-2" d="M36.72,57.5H22.2a2.43,2.43,0,1,1-.13-4.86H36.72a2.43,2.43,0,0,1,0,4.86Z"/><path id="Path_3433" data-name="Path 3433" class="cls-2" d="M36.72,67.4H22.2a2.44,2.44,0,0,1,0-4.87H36.72a2.44,2.44,0,1,1,0,4.87Z"/><path id="Path_3435" data-name="Path 3435" class="cls-2" d="M59.42,28.3H44.9a2.44,2.44,0,1,1-.13-4.87H59.42a2.44,2.44,0,0,1,0,4.87Z"/><path id="Path_3436" data-name="Path 3436" class="cls-2" d="M59.42,38H44.9a2.43,2.43,0,1,1-.13-4.86H59.42a2.43,2.43,0,0,1,0,4.86Z"/><path id="Path_3437" data-name="Path 3437" class="cls-2" d="M51.89,47.77h-7a2.44,2.44,0,1,1-.13-4.87h7.12A2.44,2.44,0,0,1,52,47.77Z"/><path id="Path_3438" data-name="Path 3438" class="cls-3" d="M83.53,56.09a20.09,20.09,0,0,0-14-6h-.36A20.21,20.21,0,1,0,83.53,56.1Z"/><path id="Path_3439" data-name="Path 3439" class="cls-4" d="M68.13,77.51a2.41,2.41,0,0,1-1.42-.46L61,72.88a2.43,2.43,0,0,1,2.85-3.94l3.89,2.8L74,63.93A2.44,2.44,0,0,1,77.75,67L70,76.6a2.45,2.45,0,0,1-1.9.91Z"/></svg>